<?xml version="1.0" encoding="UTF-8" standalone="no"?>
<svg width="100" height="100" viewBox="0 0 100 100" version="1.1" xmlns="http://www.w3.org/2000/svg">
  <!-- Background circle -->
  <circle cx="50" cy="50" r="48" fill="#2c3e50" />
  
  <!-- Chat bubble outline -->
  <path d="M75 30H25c-2.76 0-5 2.24-5 5v30c0 2.76 2.24 5 5 5h10v10l15-10h25c2.76 0 5-2.24 5-5V35c0-2.76-2.24-5-5-5z" 
        fill="#3498db" stroke="#ecf0f1" stroke-width="2" />
  
  <!-- X shape for "no saving" -->
  <path d="M42 45L58 65M58 45L42 65" stroke="#ecf0f1" stroke-width="4" stroke-linecap="round" />
  
  <!-- Lock symbol -->
  <rect x="44" y="45" width="12" height="10" rx="2" fill="#ecf0f1" />
  <rect x="46" y="40" width="8" height="8" rx="4" fill="none" stroke="#ecf0f1" stroke-width="2" />
  
  <!-- DC for "XDCM" -->
  <path d="M35 55c0-4 3-5 5-5s5 1 5 5-3 5-5 5-5-1-5-5z" fill="#e74c3c" />
  <path d="M55 55c0-4 3-5 5-5s5 1 5 5-3 5-5 5-5-1-5-5z" fill="#e74c3c" />
</svg>